PathFileType	4	(X/Y/Z)	C:/Users/opensim2020/Desktop/walking_exp_matlab/subject06_walking15_straight_02.trc																																																																																																																																											
DataRate	CameraRate	NumFrames	NumMarkers	Units	OrigDataRate	OrigDataStartFrame	OrigNumFrames																																																																																																																																							
100	100	8	47	mm	100	1492	218																																																																																																																																							
Frame#	Time	LFHD			RFHD			LBHD			RBHD			C7			T10			CLAV			STRN			RBAK			LSHO			LUPA			LELB			LFRM			LWRA			LWRB			LFIN			RSHO			RUPA			RELB			RFRM			RWRA			RWRB			RFIN			LASI			RASI			LPSI			RPSI			LTHI			LKNE			LTIB			LANK			LHEE			LTOE			RTHI			RKNE			RTIB			RANK			RHEE			RTOE			*39			*40			*41			*42			*43			*44			*45			*46		
		X1	Y1	Z1	X2	Y2	Z2	X3	Y3	Z3	X4	Y4	Z4	X5	Y5	Z5	X6	Y6	Z6	X7	Y7	Z7	X8	Y8	Z8	X9	Y9	Z9	X10	Y10	Z10	X11	Y11	Z11	X12	Y12	Z12	X13	Y13	Z13	X14	Y14	Z14	X15	Y15	Z15	X16	Y16	Z16	X17	Y17	Z17	X18	Y18	Z18	X19	Y19	Z19	X20	Y20	Z20	X21	Y21	Z21	X22	Y22	Z22	X23	Y23	Z23	X24	Y24	Z24	X25	Y25	Z25	X26	Y26	Z26	X27	Y27	Z27	X28	Y28	Z28	X29	Y29	Z29	X30	Y30	Z30	X31	Y31	Z31	X32	Y32	Z32	X33	Y33	Z33	X34	Y34	Z34	X35	Y35	Z35	X36	Y36	Z36	X37	Y37	Z37	X38	Y38	Z38	X39	Y39	Z39	X40	Y40	Z40	X41	Y41	Z41	X42	Y42	Z42	X43	Y43	Z43	X44	Y44	Z44	X45	Y45	Z45	X46	Y46	Z46	X47	Y47	Z47
																																																																																																																																														
1	0	-1323.4696	1646.6521	847.2851	-1320.38501	1640.62268	979.36102	-1455.85803	1589.23376	852.21191	-1451.33618	1588.75354	981.8371	-1451.74268	1433.37415	905.42908	-1483.06677	1105.01453	915.58972	-1339.2384	1358.27759	913.9848	-1298.63074	1182.98267	908.0415	-1527.80017	1261.54004	974.23376	-1385.1001	1391.24963	749.04865	-1343.97253	1192.79248	680.06641	-1314.21338	1083.10034	672.14801	-1204.55957	981.43903	670.68988	-1089.47485	946.61688	731.56372	-1124.64307	896.2854	696.06775	-1038.99683	868.85663	708.65741	-1401.56726	1388.50745	1071.41943	-1476.68811	1200.31067	1151.36475	-1489.70996	1078.72729	1164.45337	-1499.00562	958.80402	1184.02197	-1462.75085	809.5697	1161.86584	-1521.0542	822.43243	1194.50867	-1500.83838	740.17303	1200.65454	-1311.17065	938.32385	815.55548	-1309.51038	954.77734	1034.42969	-1468.15979	973.68311	845.38	-1460.4801	978.15869	1013.46875	-1433.76331	631.87238	778.68591	-1475.42908	472.42337	807.56378	-1576.20935	235.04201	831.57239	-1620.93616	72.10637	887.10577	-1660.93616	65.05845	935.54095	-1481.78284	33.10217	878.19006	-1301.78064	630.89777	1119.37097	-1249.63477	515.2876	1096.39734	-1216.39307	258.17407	1107.66467	-1164.14612	75.86159	1076.45105	-1189.5238	42.11115	1028.27283	-1004.40985	72.43592	1086.99402	-1423.56763	1685.30896	907.34332	NaN	NaN	NaN	NaN	NaN	NaN	NaN	NaN	NaN	NaN	NaN	NaN	NaN	NaN	NaN	NaN	NaN	NaN	NaN	NaN	NaN
2	0.01	-1313.57007	1645.54443	849.54175	-1310.21057	1639.39099	981.57446	-1445.9342	1587.95178	854.7196	-1441.03967	1587.4408	984.15247	-1441.61035	1432.21033	907.80408	-1473.24902	1103.80872	917.73529	-1329.08643	1356.99048	916.04034	-1288.79407	1181.63733	909.67944	-1517.66138	1260.19702	976.578	-1375.32092	1390.05066	751.12933	-1334.72034	1191.53711	681.78613	-1304.89929	1081.96204	673.53473	-1194.25806	981.91083	672.24298	-1078.90906	949.09497	733.43695	-1112.94238	898.09625	698.00922	-1026.88171	872.25342	710.80334	-1390.99902	1387.02112	1073.6748	-1466.14966	1198.84155	1153.74304	-1479.26147	1077.20093	1166.76489	-1488.5813	957.31049	1186.30945	-1452.526	807.94397	1163.62915	-1510.77161	821.00897	1196.80969	-1490.46912	738.71387	1202.92004	-1302.23767	936.86877	816.38135	-1299.01672	953.48444	1035.94678	-1458.77576	972.30542	847.66888	-1450.35217	977.07318	1015.76709	-1425.84546	631.12091	780.04761	-1468.24353	471.74557	808.75238	-1572.73584	235.77023	832.06622	-1620.34241	73.42023	887.13373	-1660.50122	66.87209	935.45258	-1481.70544	33.06301	878.30658	-1292.57251	629.31635	1121.77686	-1241.495	513.08948	1097.64404	-1202.62109	257.3559	1108.69055	-1145.49854	76.37105	1077.59998	-1170.4873	41.73351	1029.86328	-985.43872	77.13466	1086.0321	-1413.58667	1684.0321	909.77185	NaN	NaN	NaN	NaN	NaN	NaN	NaN	NaN	NaN	NaN	NaN	NaN	NaN	NaN	NaN	NaN	NaN	NaN	NaN	NaN	NaN
3	0.02	-1303.5929	1644.40942	851.81622	-1299.99902	1638.25586	983.86371	-1435.93152	1586.78552	857.16962	-1430.73352	1586.14148	986.62286	-1431.44751	1431.14417	910.2196	-1463.29358	1102.66931	919.88342	-1318.84924	1355.77356	918.10986	-1278.80249	1180.34827	911.42706	-1507.41602	1258.9834	978.9856	-1365.58276	1388.95532	753.27338	-1325.74756	1190.43372	683.43127	-1295.71179	1080.86267	674.97552	-1184.19995	982.09656	673.88562	-1068.63879	951.01355	735.27765	-1101.91992	899.43396	699.9162	-1015.43829	875.04059	712.70355	-1380.35425	1385.59497	1075.94788	-1455.4613	1197.30334	1155.97339	-1468.53418	1075.71228	1169.15625	-1477.81946	955.81049	1188.62781	-1441.85522	806.41187	1165.6709	-1499.92786	819.46155	1199.03223	-1479.6925	737.29358	1205.21692	-1292.81348	935.63171	817.90717	-1288.52588	952.43341	1037.745	-1449.18762	970.99164	850.06769	-1439.88452	975.92981	1018.13428	-1417.61133	630.40118	781.46301	-1461.05212	471.25369	809.68896	-1569.14221	236.74506	832.34113	-1619.55334	74.98892	886.90662	-1659.97974	68.91352	935.0564	-1481.55676	33.00953	878.39075	-1282.91724	627.92322	1123.85181	-1232.89014	511.43002	1098.63745	-1189.55298	256.62512	1109.80212	-1129.33765	76.46879	1078.30127	-1154.09338	41.19721	1030.95203	-969.19073	80.48188	1085.06799	-1403.5343	1682.78662	912.29303	NaN	NaN	NaN	NaN	NaN	NaN	NaN	NaN	NaN	NaN	NaN	NaN	NaN	NaN	NaN	NaN	NaN	NaN	NaN	NaN	NaN
4	0.03	-1293.58887	1643.41357	854.13483	-1289.69775	1637.1759	986.12976	-1425.79309	1585.61426	859.70038	-1420.50598	1584.9353	989.29028	-1421.2439	1430.10352	912.62677	-1453.19324	1101.66333	922.13318	-1308.56042	1354.64771	920.30695	-1268.88745	1179.10217	913.36584	-1497.19031	1257.85181	981.4361	-1355.8772	1387.9812	755.42938	-1316.3833	1189.28198	685.31488	-1286.67188	1079.88855	676.47272	-1174.40698	982.11792	675.49341	-1058.63013	952.28296	737.11328	-1091.29016	900.52246	701.85114	-1004.41693	877.17969	714.48828	-1369.76697	1384.34521	1078.28748	-1444.6178	1195.95215	1158.48938	-1457.5199	1074.32129	1171.59058	-1466.7146	954.35748	1190.97876	-1430.93323	805.19122	1168.0365	-1488.98035	818.12048	1201.50916	-1468.52466	735.93744	1207.58899	-1283.19727	934.52264	819.48468	-1277.80725	951.32593	1039.56006	-1439.42737	969.68011	852.52252	-1429.3894	974.8667	1020.58936	-1409.02588	629.79553	782.8598	-1453.26514	470.77649	810.65839	-1565.22229	237.864	832.43225	-1618.61755	76.83047	886.48553	-1659.47278	71.45741	934.43207	-1481.41443	32.95107	878.3844	-1272.76514	626.38348	1125.23816	-1223.64709	510.22058	1099.17468	-1177.93237	255.70395	1110.50684	-1116.03845	75.94794	1078.68115	-1140.58203	40.25687	1031.44299	-955.86792	82.09942	1084.34912	-1393.43359	1681.68652	914.80511	NaN	NaN	NaN	NaN	NaN	NaN	NaN	NaN	NaN	NaN	NaN	NaN	NaN	NaN	NaN	NaN	NaN	NaN	NaN	NaN	NaN
5	0.04	-1283.54187	1642.5249	856.51385	-1279.40125	1636.21204	988.47211	-1415.69214	1584.64661	862.27173	-1410.14172	1583.89771	991.81836	-1410.98889	1429.12732	915.12396	-1442.96545	1100.73743	924.46313	-1298.24121	1353.68384	922.53162	-1258.69739	1178.07471	915.44019	-1486.85388	1256.88086	983.96722	-1345.95154	1387.04431	757.78522	-1307.22815	1188.34155	687.17395	-1277.65625	1078.87366	678.09949	-1164.94727	981.98145	677.13141	-1049.12744	953.15045	738.88763	-1081.15271	900.98969	703.40131	-994.06744	878.65417	716.11603	-1359.14368	1383.24731	1080.67249	-1433.57861	1194.64026	1160.84167	-1446.28955	1073.01978	1174.04175	-1455.36243	953.05896	1193.44043	-1419.57581	803.82776	1170.19116	-1477.38867	816.72028	1203.85352	-1456.96399	734.70886	1210.00598	-1273.33826	933.62	821.2724	-1267.12024	950.45526	1041.69897	-1429.50208	968.51886	855.11359	-1418.80798	973.93634	1023.1073	-1400.07617	629.30389	784.27148	-1445.08936	470.39706	811.57861	-1560.97314	239.19579	832.38965	-1617.64551	78.96819	885.742	-1658.57007	74.00955	933.29419	-1481.24915	32.92439	878.36902	-1262.20581	625.28375	1126.29175	-1213.65491	509.42361	1099.74365	-1167.60889	254.46626	1111.2124	-1105.72314	74.6511	1078.82324	-1130.2677	38.77761	1031.68323	-945.41675	81.87376	1083.43555	-1383.29456	1680.71851	917.35211	NaN	NaN	NaN	NaN	NaN	NaN	NaN	NaN	NaN	NaN	NaN	NaN	NaN	NaN	NaN	NaN	NaN	NaN	NaN	NaN	NaN
6	0.05	-1273.35876	1641.73523	858.87488	-1269.00244	1635.33167	990.82043	-1405.51648	1583.8252	864.83252	-1399.60254	1582.97119	994.17926	-1400.77673	1428.27808	917.7243	-1432.56311	1099.90491	926.9472	-1287.83325	1352.83923	924.84381	-1248.37097	1177.19946	917.59253	-1476.42786	1256.02148	986.61139	-1335.87964	1386.1084	760.21942	-1297.7218	1187.36377	689.255	-1268.86328	1077.96167	679.97479	-1155.76843	981.58478	678.79987	-1039.82581	953.32269	740.67114	-1071.56702	901.1037	705.17908	-984.27576	879.43555	717.68408	-1348.50146	1382.3418	1083.13501	-1422.40173	1193.48718	1163.38037	-1434.88574	1071.8728	1176.52795	-1443.75635	951.91754	1195.91907	-1407.83435	802.77063	1172.43555	-1465.66467	815.58026	1206.38733	-1444.98633	733.54492	1212.41614	-1263.27234	932.78986	823.13672	-1256.50635	949.49396	1043.26929	-1419.2135	967.46216	857.69507	-1408.06372	973.05127	1025.57104	-1390.79016	628.84918	785.70044	-1436.39404	470.06607	812.45007	-1556.2887	240.63783	832.18317	-1616.43628	81.46812	884.70709	-1657.91016	77.37918	932.05725	-1481.04688	32.90791	878.31592	-1251.27454	624.64758	1127.19385	-1202.91638	509.07999	1100.15857	-1158.59778	252.93782	1111.64111	-1098.13647	72.6323	1078.74414	-1123.07446	36.70857	1031.82532	-938.17633	80.28169	1082.52014	-1373.0144	1679.80615	919.93115	NaN	NaN	NaN	NaN	NaN	NaN	NaN	NaN	NaN	NaN	NaN	NaN	NaN	NaN	NaN	NaN	NaN	NaN	NaN	NaN	NaN
7	0.06	-1263.1886	1641.02539	861.22522	-1258.62366	1634.56775	993.2373	-1395.23132	1583.04211	867.44086	-1389.31274	1582.20801	996.9317	-1390.56335	1427.48511	920.36475	-1421.92175	1099.14001	929.54559	-1277.41162	1352.14624	927.24335	-1237.96606	1176.47339	919.90228	-1465.87891	1255.2323	989.33087	-1325.93677	1385.34387	762.73578	-1288.43481	1186.56653	691.39081	-1259.979	1077.11218	681.69623	-1146.91846	980.91559	680.48041	-1031.02856	953.01715	742.2713	-1062.41406	900.63464	706.62683	-975.01715	879.52789	718.97888	-1337.854	1381.59888	1085.63757	-1411.125	1192.63062	1166.27271	-1423.3363	1070.87207	1179.08228	-1431.94421	950.90826	1198.39966	-1395.83398	801.86316	1174.82019	-1453.65955	814.63202	1208.99487	-1432.72937	732.62897	1214.92041	-1252.92957	932.13831	825.14716	-1245.48291	948.76959	1045.48901	-1408.61035	966.5686	860.29352	-1397.04736	972.25415	1028.00269	-1381.15979	628.39825	787.06421	-1427.21948	469.65305	813.27637	-1551.09265	242.17993	831.86359	-1615.10095	84.1918	883.49072	-1657.00989	80.98905	930.53204	-1480.86218	32.87388	878.23206	-1239.52673	624.26349	1127.67871	-1191.54114	509.12024	1100.41577	-1150.49243	251.21928	1112.23474	-1093.12878	70.17224	1078.74341	-1119.01953	35.35366	1032.36633	-933.27612	76.56339	1081.0614	-1362.70752	1679.06921	922.49365	NaN	NaN	NaN	NaN	NaN	NaN	NaN	NaN	NaN	NaN	NaN	NaN	NaN	NaN	NaN	NaN	NaN	NaN	NaN	NaN	NaN
8	0.07	-1252.98889	1640.33948	863.65436	-1248.11975	1633.88635	995.57776	-1385.24341	1582.5271	870.00824	-1378.86731	1581.61121	999.53174	-1380.38696	1426.73315	923.04742	-1411.01965	1098.4165	932.34454	-1266.94678	1351.59424	929.72632	-1227.26648	1175.97144	922.39917	-1455.18835	1254.44531	992.09424	-1315.95508	1384.56738	765.37097	-1279.09558	1185.87439	693.61078	-1251.35559	1076.26465	683.76099	-1138.36255	980.04321	682.13782	-1022.4422	952.09906	743.85376	-1053.78381	899.81232	708.18341	-966.31476	878.90961	720.22491	-1327.20117	1381.01282	1088.21118	-1399.71118	1191.7439	1168.92224	-1411.69385	1070.0238	1181.63428	-1419.94312	950.04138	1200.95129	-1383.44739	801.12463	1177.18799	-1441.08521	813.57831	1211.40356	-1420.05969	731.81238	1217.37622	-1242.31885	931.60669	827.24219	-1234.26465	948.20947	1047.8866	-1397.77625	965.9231	862.95831	-1385.83276	971.60358	1030.50195	-1371.23157	627.9892	788.45349	-1417.36426	469.12183	814.13452	-1545.49963	243.85864	831.54071	-1613.46594	87.30163	882.2533	-1655.81555	84.99998	928.87207	-1480.64624	32.81946	878.11591	-1227.23022	624.15472	1127.74927	-1179.70288	509.3544	1100.11719	-1143.31482	249.44293	1112.47498	-1090.15735	67.27122	1078.3573	-1117.25439	33.61353	1032.11658	-930.65686	70.30717	1079.53723	-1352.37378	1678.50085	925.03864	NaN	NaN	NaN	NaN	NaN	NaN	NaN	NaN	NaN	NaN	NaN	NaN	NaN	NaN	NaN	NaN	NaN	NaN	NaN	NaN	NaN
